<svg viewBox="0 0 18.16 27.26" xmlns="http://www.w3.org/2000/svg">
  <path d="M7.87,0.02C7.23,0.11 6.70,0.24 6.15,0.43C3.43,1.34 1.32,3.49 0.42,6.27C0.07,7.32 0.00,7.85 0.00,9.21C0.01,10.50 0.07,10.97 0.42,12.05C0.88,13.52 2.84,17.09 7.04,24.13C8.77,27.04 8.90,27.26 8.94,27.26C8.98,27.26 9.38,26.62 10.14,25.36C10.37,24.98 10.89,24.12 11.29,23.46C14.70,17.84 16.90,13.77 17.46,12.06C18.16,9.90 18.05,7.45 17.14,5.40C16.10,3.02 14.12,1.21 11.70,0.40C10.81,0.11 10.30,0.03 9.13,0.01C8.53,-0.00 7.96,0.00 7.87,0.02Z" fill="#FFFFFF"/>
  <g transform="translate(4.90,5.00) scale(0.020305)">
    <path d="M393.746 0.763428H197.246C88.7344 0.763428 0.746094 88.7518 0.746094 197.263C0.746094 305.775 88.7344 393.763 197.246 393.763C305.758 393.763 393.746 305.775 393.746 197.263H197.246C305.758 197.263 393.746 109.275 393.746 0.763428Z" fill="#FF0000"/>
  </g>
</svg>